<svg xmlns="http://www.w3.org/2000/svg" enable-background="new 0 0 100 100" viewBox="0 0 100 100" id="calorie-counter"><path d="M31.5,80c0,0.83-0.67,1.5-1.5,1.5h-8c-0.83,0-1.5-0.67-1.5-1.5s0.67-1.5,1.5-1.5h8C30.83,78.5,31.5,79.17,31.5,80z M30,54.5
	h-8c-0.83,0-1.5,0.67-1.5,1.5s0.67,1.5,1.5,1.5h8c0.83,0,1.5-0.67,1.5-1.5S30.83,54.5,30,54.5z M30,66.5h-8
	c-0.83,0-1.5,0.67-1.5,1.5s0.67,1.5,1.5,1.5h8c0.83,0,1.5-0.67,1.5-1.5S30.83,66.5,30,66.5z M30,42.5h-8c-0.83,0-1.5,0.67-1.5,1.5
	s0.67,1.5,1.5,1.5h8c0.83,0,1.5-0.67,1.5-1.5S30.83,42.5,30,42.5z M46,42.5h-8c-0.83,0-1.5,0.67-1.5,1.5s0.67,1.5,1.5,1.5h8
	c0.83,0,1.5-0.67,1.5-1.5S46.83,42.5,46,42.5z M54,42.5c-0.83,0-1.5,0.67-1.5,1.5s0.67,1.5,1.5,1.5h8c0.83,0,1.5-0.67,1.5-1.5
	s-0.67-1.5-1.5-1.5H54z M87.36,69.81c-0.56,5.22-3.81,10.06-6.57,13.69c-3.27,4.31-6.05,6.86-8.25,7.58
	c-0.86,0.28-1.7,0.42-2.5,0.42c-1.16,0-2.23-0.3-3.17-0.87c-0.99,0.57-2.02,0.87-3.06,0.87c-0.06,0-0.12,0-0.18,0
	c-0.73-0.02-1.65-0.22-2.65-0.79c-0.87,0.5-1.85,0.76-2.9,0.78c-0.03,0-0.06,0.01-0.09,0.01h-0.02c-0.01,0-0.02,0-0.03,0
	c-0.01,0-0.02,0-0.03,0H18.11c-3.09,0-5.61-2.52-5.61-5.61V14.11c0-3.09,2.52-5.61,5.61-5.61h47.78c3.09,0,5.61,2.52,5.61,5.61
	v26.15c1.86-0.49,4.02-0.75,6.5-0.75c0.28,0,0.5,0.22,0.5,0.5c0,3.23-0.68,7.68-3.91,10.62c2.97,0.39,5.61,1.8,7.49,3.48
	C86.18,57.76,88.06,63.33,87.36,69.81z M18.11,88.5H51.6c-1.34-1.25-2.8-2.92-4.39-5c-0.48-0.63-0.97-1.3-1.47-2H38
	c-0.83,0-1.5-0.67-1.5-1.5s0.67-1.5,1.5-1.5h5.8c-1.55-2.65-2.83-5.6-3.16-8.69c-0.01-0.1-0.02-0.21-0.03-0.31H38
	c-0.83,0-1.5-0.67-1.5-1.5s0.67-1.5,1.5-1.5h2.51c0.11-3.39,0.98-6.44,2.56-9H38c-0.83,0-1.5-0.67-1.5-1.5s0.67-1.5,1.5-1.5h7.5
	c0.14-0.13,0.28-0.27,0.42-0.4c3.64-3.24,10.07-5.49,16.31-1.29c0.54-0.09,1.08-0.14,1.62-0.13c-0.28-1.06-1.11-5.13,1.38-8.53
	c0.82-1.12,1.92-2.04,3.27-2.75V14.11c0-1.44-1.17-2.61-2.61-2.61H18.11c-1.44,0-2.61,1.17-2.61,2.61v71.78
	C15.5,87.33,16.67,88.5,18.11,88.5z M80.08,56.34c-2.57-2.29-6.56-3.82-10.71-2.09c0.56,0.32,1.11,0.69,1.66,1.11
	c0.65,0.51,0.77,1.45,0.26,2.1c-0.3,0.38-0.74,0.58-1.18,0.58c-0.32,0-0.65-0.1-0.92-0.32c-3.52-2.74-7.27-2.76-10.3-0.06
	c-0.62,0.55-1.57,0.5-2.12-0.12c-0.55-0.62-0.5-1.57,0.12-2.12c0.52-0.47,1.07-0.87,1.63-1.22c-4.11-1.66-8.06-0.14-10.6,2.13
	c-4.53,4.04-4.63,9.97-4.29,13.15c0.48,4.48,3.45,8.88,5.97,12.2c3.94,5.19,6.07,6.31,6.8,6.54c0.6,0.2,1.36,0.34,2.11,0.22
	c-0.44-0.65-0.31-1.54,0.32-2.02c0.65-0.51,1.6-0.39,2.1,0.27c0.91,1.17,1.85,1.78,2.81,1.81c1.32,0.05,2.54-1,3.32-1.88
	c0.55-0.62,1.5-0.68,2.12-0.13c0.57,0.5,0.66,1.34,0.25,1.95c0.77,0.14,1.56-0.01,2.18-0.21c0.73-0.24,2.85-1.36,6.8-6.54
	c2.53-3.32,5.49-7.72,5.97-12.2C84.72,66.31,84.62,60.38,80.08,56.34z M24.01,34.5h35.97c1.39,0,2.51-1.13,2.51-2.51V20.01
	c0-1.39-1.13-2.51-2.51-2.51H24.01c-1.39,0-2.51,1.13-2.51,2.51v11.97C21.5,33.37,22.63,34.5,24.01,34.5z"></path></svg>